<svg width="350" height="27" viewBox="0 0 350 27" fill="none" xmlns="http://www.w3.org/2000/svg">
<path d="M350 27.0001L0 27.0001L0 19.0141C4.20833 9.59968 9.76389 7.76291 16.6667 13.5037C24.4398 -1.15464 33.6991 -3.18299 44.4444 7.41871C56.2886 -1.68621 65.5478 1.83892 72.2222 17.9941C76.9475 9.28284 82.5031 8.14921 88.8889 14.5932C93.5077 5.73668 99.0633 4.45987 105.556 10.7628C117.199 1.3842 126.458 4.6367 133.333 20.5203C137.477 11.0154 143.032 9.08917 150 14.7416C157.833 0.165302 167.093 -1.77988 177.778 8.90602C189.369 -0.544137 198.628 2.63678 205.556 18.4488C213.449 3.95463 222.708 2.0905 233.333 12.8564C241.668 -1.03569 250.927 -2.29776 261.111 9.07022C268.923 4.56935 274.478 7.64713 277.778 18.3036C282.358 9.39443 287.914 8.065 294.444 14.3153C301.991 -0.650449 311.25 -2.98615 322.222 7.30819C334.289 -1.49357 343.548 2.33575 350 18.7962V27.0001Z" fill="white"/>
</svg>
