<svg width="1440" height="400" viewBox="0 0 1440 400" fill="none" xmlns="http://www.w3.org/2000/svg">
<g clip-path="url(#clip0_14_56)">
<mask id="mask0_14_56" style="mask-type:luminance" maskUnits="userSpaceOnUse" x="0" y="0" width="1440" height="400">
<path d="M1440 0H0V400H1440V0Z" fill="white"/>
</mask>
<g mask="url(#mask0_14_56)">
<path d="M1536 400H0V86.1399C27.56 65.7066 51.56 69.2699 72 96.8299C102.447 79.2766 126.447 85.7199 144 116.16C156.38 80.5399 180.38 68.9233 216 81.3099C248.18 65.4966 272.18 73.6799 288 105.86C331.74 69.5999 371.74 73.3366 408 117.07C438.26 67.3299 478.26 57.5899 528 87.8499C557.513 69.3633 581.513 74.8766 600 104.39C628.3 84.6899 652.3 88.9899 672 117.29C686.593 83.8833 710.593 74.4766 744 89.0699C789.813 54.8833 829.813 60.6966 864 106.51C896.913 59.4233 936.913 52.3333 984 85.2399C1006.94 60.1799 1030.94 59.1199 1056 82.0599C1107.48 53.5399 1147.48 65.0199 1176 116.5C1209.34 69.8399 1249.34 63.1766 1296 96.5099C1331.74 52.2499 1371.74 47.9866 1416 83.7199C1464.39 52.1066 1504.39 60.4899 1536 108.87V400Z" fill="#FEC7D7"/>
<path d="M1464 400H0V123.91C29.0067 104.917 53.0067 109.923 72 138.93C101.98 88.9165 141.98 78.8999 192 108.88C236.313 73.1932 276.313 77.5065 312 121.82C339.38 101.207 363.38 104.59 384 131.97C416.127 84.0965 456.127 76.2199 504 108.34C555.667 80.0065 595.667 91.6699 624 143.33C639.82 111.15 663.82 102.97 696 118.79C732.56 75.3499 772.56 71.9065 816 108.46C866.993 79.4465 906.993 90.4365 936 141.43C954.607 112.037 978.607 106.647 1008 125.26C1043.53 80.7865 1083.53 76.3132 1128 111.84C1159.95 95.7999 1183.95 103.757 1200 135.71C1215.97 103.677 1239.97 95.6432 1272 111.61C1315.35 74.9565 1355.35 78.2999 1392 121.64C1421.15 102.793 1445.15 107.943 1464 137.09V400Z" fill="#E7B4C8"/>
<path d="M1512 400H0V155.98C27.0867 135.067 51.0867 138.153 72 165.24C105.187 118.433 145.187 111.623 192 144.81C219.413 124.223 243.413 127.637 264 155.05C307.707 118.757 347.707 122.46 384 166.16C397.807 131.967 421.807 121.773 456 135.58C500.02 99.5999 540.02 103.62 576 147.64C621.707 113.34 661.707 119.043 696 164.75C710.06 130.81 734.06 120.87 768 134.93C813.333 100.27 853.333 105.607 888 150.94C917.22 132.16 941.22 137.38 960 166.6C989.807 116.407 1029.81 106.21 1080 136.01C1124.2 100.21 1164.2 104.41 1200 148.61C1244.59 113.203 1284.59 117.797 1320 162.39C1351.67 114.063 1391.67 105.74 1440 137.42C1468.32 117.74 1492.32 122.06 1512 150.38V400Z" fill="#CFA2B9"/>
<path d="M1512 400H0V165.85C32.54 150.39 56.54 158.93 72 191.47C108.2 147.67 148.2 143.87 192 180.07C212.6 152.67 236.6 149.267 264 169.86C296.047 153.907 320.047 161.953 336 194C371.42 149.42 411.42 144.84 456 180.26C490.787 135.047 530.787 129.833 576 164.62C610.733 151.353 634.733 162.083 648 196.81C668.2 169.017 692.2 165.22 720 185.42C756.38 141.8 796.38 138.18 840 174.56C875.993 130.553 915.993 126.543 960 162.53C1011.27 133.803 1051.27 145.073 1080 196.34C1099.53 167.873 1123.53 163.407 1152 182.94C1188.41 139.353 1228.41 135.763 1272 172.17C1319.27 139.443 1359.27 146.717 1392 193.99C1420.79 142.79 1460.79 131.587 1512 160.38V400Z" fill="#B891AA"/>
<path d="M1560 400H0V186.95C24.38 163.33 48.38 163.713 72 188.1C103.6 171.7 127.6 179.3 144 210.9C180.253 167.153 220.253 163.403 264 199.65C311.387 167.037 351.387 174.42 384 221.8C403.707 193.507 427.707 189.213 456 208.92C473.08 177.993 497.08 171.07 528 188.15C578.527 158.677 618.527 169.207 648 219.74C681.793 173.533 721.793 167.327 768 201.12C804.3 157.413 844.3 153.71 888 190.01C919.227 173.237 943.227 180.463 960 211.69C1004.05 175.737 1044.05 179.787 1080 223.84C1093.55 189.387 1117.55 178.933 1152 192.48C1180.74 173.213 1204.74 177.95 1224 206.69C1253.62 188.31 1277.62 193.93 1296 223.55C1308.58 188.13 1332.58 176.707 1368 189.28C1395.95 169.233 1419.95 173.187 1440 201.14C1483.47 164.62 1523.47 168.097 1560 211.57V400Z" fill="#A1809A"/>
<path d="M1488 400H0V246.2C17.2667 215.467 41.2667 208.733 72 226C113 187 153 188.003 192 229.01C222.573 211.583 246.573 218.157 264 248.73C293.853 198.577 333.853 188.427 384 218.28C429.947 184.227 469.947 190.177 504 236.13C532.08 216.21 556.08 220.287 576 248.36C592.56 216.92 616.56 209.48 648 226.04C683.767 181.807 723.767 177.573 768 213.34C802 199.34 826 209.337 840 243.33C858.52 213.85 882.52 208.37 912 226.89C939.047 205.937 963.047 208.983 984 236.03C1000.93 204.97 1024.93 197.907 1056 214.84C1099.42 178.267 1139.42 181.69 1176 225.11C1221.25 190.363 1261.25 195.617 1296 240.87C1311.02 207.883 1335.02 198.9 1368 213.92C1412.09 178.007 1452.09 182.093 1488 226.18V400Z" fill="#8A6F8B"/>
<path d="M1512 400H0V275.75C35.8533 231.603 75.8533 227.46 120 263.32C153.353 216.673 193.353 210.027 240 243.38C291.267 214.647 331.267 225.917 360 277.19C378.587 247.777 402.587 242.367 432 260.96C468.44 217.4 508.44 213.837 552 250.27C599.4 217.67 639.4 225.07 672 272.47C686.68 239.15 710.68 229.83 744 244.51C773.087 225.597 797.087 230.683 816 259.77C845.72 241.49 869.72 247.207 888 276.92C917.513 226.433 957.513 215.95 1008 245.47C1051.39 208.863 1091.39 212.253 1128 255.64C1156.51 236.147 1180.51 240.657 1200 269.17C1216.03 237.203 1240.03 229.233 1272 245.26C1315.81 209.08 1355.81 212.897 1392 256.71C1435.91 220.623 1475.91 224.537 1512 268.45V400Z" fill="#745F7B"/>
<path d="M1512 400H0V296.07C16.7267 264.797 40.7267 257.527 72 274.26C99.6133 253.873 123.613 257.487 144 285.1C174.233 267.333 198.233 273.567 216 303.8C245.08 252.88 285.08 241.96 336 271.04C381.787 236.827 421.787 242.613 456 288.4C501.187 253.587 541.187 258.773 576 303.96C604.573 252.533 644.573 241.107 696 269.68C740.593 234.28 780.593 238.877 816 283.47C845.307 264.783 869.307 270.093 888 299.4C901.4 264.8 925.4 254.2 960 267.6C989.42 249.027 1013.42 254.45 1032 283.87C1076.48 248.35 1116.48 252.83 1152 297.31C1182.25 247.557 1222.25 237.8 1272 268.04C1315.73 231.773 1355.73 235.507 1392 279.24C1438.04 245.28 1478.04 251.317 1512 297.35V400Z" fill="#0E172C"/>
<path d="M1536 400H0V327.1C29.58 276.68 69.58 266.257 120 295.83C166.747 262.577 206.747 269.323 240 316.07C284.087 280.157 324.087 284.247 360 328.34C374.093 294.433 398.093 284.527 432 298.62C459.88 278.5 483.88 282.383 504 310.27C534.207 292.477 558.207 298.683 576 328.89C590.413 295.297 614.413 285.707 648 300.12C676.893 281.013 700.893 285.903 720 314.79C763.887 278.677 803.887 282.563 840 326.45C870.233 276.677 910.233 266.907 960 297.14C989.5 278.633 1013.5 284.13 1032 313.63C1076.66 278.297 1116.66 282.96 1152 327.62C1164.77 292.387 1188.77 281.153 1224 293.92C1253.46 275.387 1277.46 280.85 1296 310.31C1342.42 276.73 1382.42 283.153 1416 329.58C1445.11 278.693 1485.11 267.81 1536 296.93V400Z" fill="#35324B"/>
<path d="M1488 400H0V328.22C39.9733 288.193 79.9733 288.167 120 328.14C164.667 292.8 204.667 297.463 240 342.13C268.087 322.217 292.087 326.307 312 354.4C340.54 302.94 380.54 291.48 432 320.02C462.473 302.493 486.473 308.963 504 339.43C549.713 305.143 589.713 310.857 624 356.57C652.373 304.943 692.373 293.313 744 321.68C776.227 305.907 800.227 314.133 816 346.36C852.293 302.653 892.293 298.947 936 335.24C983.247 302.487 1023.25 309.733 1056 356.98C1085.42 306.4 1125.42 295.817 1176 325.23C1221.82 291.05 1261.82 296.87 1296 342.69C1324.2 322.89 1348.2 327.09 1368 355.29C1398.32 305.61 1438.32 295.93 1488 326.25V400Z" fill="#0E172C"/>
<path d="M1464 400H0V352.59C34.1733 338.763 58.1733 348.937 72 383.11C106.46 337.57 146.46 332.03 192 366.49C212.58 339.07 236.58 335.647 264 356.22C311.533 323.753 351.533 331.29 384 378.83C422.8 337.63 462.8 336.433 504 375.24C523.447 346.687 547.447 342.133 576 361.58C611.08 316.653 651.08 311.73 696 346.81C748.06 318.87 788.06 330.93 816 382.99C833.1 352.09 857.1 345.193 888 362.3C907.36 333.66 931.36 329.017 960 348.37C992.247 332.617 1016.25 340.863 1032 373.11C1068.06 329.17 1108.06 325.23 1152 361.29C1188.1 317.39 1228.1 313.49 1272 349.59C1305.04 334.63 1329.04 343.67 1344 376.71C1380.2 332.91 1420.2 329.11 1464 365.31V400Z" fill="#21243C"/>
<path d="M1488 400H0V374.1C26.4 352.5 50.4 354.9 72 381.3C116.187 345.487 156.187 349.67 192 393.85C221.067 374.917 245.067 379.983 264 409.05C292.227 357.277 332.227 345.503 384 373.73C430.127 339.857 470.127 345.98 504 392.1C532.193 372.293 556.193 376.49 576 404.69C590.42 371.11 614.42 361.533 648 375.96C677.053 357.013 701.053 362.067 720 391.12C764.107 355.227 804.107 359.333 840 403.44C871.72 355.16 911.72 346.88 960 378.6C983.633 354.24 1007.63 353.877 1032 377.51C1062.47 359.977 1086.47 366.443 1104 396.91C1147.49 360.403 1187.49 363.897 1224 407.39C1237.37 372.763 1261.37 362.137 1296 375.51C1343.53 343.043 1383.53 350.577 1416 398.11C1443.66 377.777 1467.66 381.44 1488 409.1V400Z" fill="#0E172C"/>
</g>
</g>
<defs>
<clipPath id="clip0_14_56">
<rect width="1440" height="400" fill="white"/>
</clipPath>
</defs>
</svg>
