<svg width="1440" height="560" viewBox="0 0 1440 560" fill="none" xmlns="http://www.w3.org/2000/svg">
<mask id="mask0_5_63" style="mask-type:luminance" maskUnits="userSpaceOnUse" x="0" y="0" width="1440" height="560">
<path d="M0 560L1440 560L1440 0L0 0L0 560Z" fill="white"/>
</mask>
<g mask="url(#mask0_5_63)">
<path d="M-72 0L1440 0L1440 374.1C1395.8 409.9 1355.8 405.697 1320 361.49C1271.22 392.71 1231.22 383.93 1200 335.15C1181.17 364.33 1157.17 369.507 1128 350.68C1094.83 397.52 1054.83 404.357 1008 371.19C964.613 407.803 924.613 404.413 888 361.02C854.773 375.793 830.773 366.567 816 333.34C805.347 370.693 781.347 384.043 744 373.39C715.713 393.103 691.713 388.817 672 360.53C639.787 376.317 615.787 368.103 600 335.89C564.627 380.517 524.627 385.143 480 349.77C443.56 393.33 403.56 396.887 360 360.44C310.773 391.22 270.773 381.997 240 332.77C204.633 377.403 164.633 382.037 120 346.67C87.7333 394.397 47.7333 402.127 0 369.86C-36.7533 381.107 -60.7533 368.35 -72 331.59L-72 0Z" fill="#FEC7D7"/>
<path d="M-48 -1.52588e-05L1440 -1.52588e-05L1440 321.89C1415.54 345.43 1391.54 344.97 1368 320.51C1338.18 338.69 1314.18 332.867 1296 303.04C1266.03 353.073 1226.03 363.103 1176 333.13C1130.01 367.137 1090.01 361.147 1056 315.16C1028.41 335.573 1004.41 331.987 984 304.4C951.773 352.173 911.773 359.947 864 327.72C836.313 348.033 812.313 344.347 792 316.66C760.853 365.513 720.853 374.367 672 343.22C635.513 354.733 611.513 342.247 600 305.76C564.587 350.347 524.587 354.933 480 319.52C446.773 366.3 406.773 373.077 360 339.85C325.747 353.597 301.747 343.343 288 309.09C254.347 355.437 214.347 361.78 168 328.12C148.94 357.06 124.94 362 96 342.94C60.8867 355.827 36.8867 344.713 24 309.6C6.61328 340.213 -17.3867 346.83 -48 329.45L-48 -1.52588e-05Z" fill="#E7B4C8"/>
<path d="M-48 0L1440 0L1440 304.67C1388.91 333.577 1348.91 322.483 1320 271.39C1300.69 300.077 1276.69 304.767 1248 285.46C1232.74 318.2 1208.74 326.94 1176 311.68C1122.67 338.353 1082.67 325.023 1056 271.69C1038.95 302.637 1014.95 309.58 984 292.52C966.547 323.067 942.547 329.617 912 312.17C857.613 337.783 817.613 323.4 792 269.02C776.973 301.993 752.973 310.963 720 295.93C684.487 340.417 644.487 344.903 600 309.39C563.547 320.937 539.547 308.483 528 272.03C510.967 302.997 486.967 309.963 456 292.93C422.573 339.503 382.573 346.077 336 312.65C299.78 324.43 275.78 312.213 264 276C229.293 321.293 189.293 326.587 144 291.88C109.707 337.587 69.7067 343.29 24 308.99C-12.28 320.703 -36.28 308.42 -48 272.14L-48 0Z" fill="#CFA2B9"/>
<path d="M-48 0L1440 0L1440 248.5C1400.97 289.467 1360.97 290.433 1320 251.4C1284.28 295.673 1244.28 299.95 1200 264.23C1167.37 279.61 1143.37 270.987 1128 238.36C1092.02 282.38 1052.02 286.403 1008 250.43C971.72 294.15 931.72 297.87 888 261.59C851.907 305.49 811.907 309.393 768 273.3C734.64 287.94 710.64 278.583 696 245.23C676.22 273.45 652.22 277.67 624 257.89C606.26 288.15 582.26 294.413 552 276.68C517.12 289.8 493.12 278.917 480 244.03C459.847 271.877 435.847 275.723 408 255.57C375.14 302.71 335.14 309.853 288 277C260.58 297.58 236.58 294.163 216 266.75C185.92 284.67 161.92 278.59 144 248.51C129.967 282.477 105.967 292.443 72 278.41C26.0333 312.443 -13.9667 306.473 -48 260.5L-48 0Z" fill="#B891AA"/>
<path d="M-48 0L1440 0V241.51C1412.29 261.797 1388.29 258.087 1368 230.38C1321.79 264.167 1281.79 257.953 1248 211.74C1218.45 262.187 1178.45 272.633 1128 243.08C1097.89 260.967 1073.89 254.857 1056 224.75C1010.74 259.49 970.74 254.227 936 208.96C923.473 244.433 899.473 255.91 864 243.39C836.593 263.983 812.593 260.58 792 233.18C759.14 248.32 735.14 239.46 720 206.6C700.627 235.227 676.627 239.853 648 220.48C613.033 265.513 573.033 270.547 528 235.58C479.18 266.76 439.18 257.94 408 209.12C388.807 237.933 364.807 242.743 336 223.55C318.973 254.523 294.973 261.497 264 244.47C213.193 273.663 173.193 262.857 144 212.05C127.04 243.09 103.04 250.13 72 233.17C36.8066 277.977 -3.19336 282.783 -48 247.59V0Z" fill="#A1809A"/>
<path d="M-48 0L1440 0V206.33C1396.31 242.643 1356.31 238.96 1320 195.28C1273.42 228.7 1233.42 222.12 1200 175.54C1174.45 229.987 1134.45 244.43 1080 218.87C1047.18 234.05 1023.18 225.233 1008 192.42C963.407 227.827 923.407 223.237 888 178.65C858.4 229.05 818.4 239.447 768 209.84C721.127 242.967 681.127 236.097 648 189.23C627.427 216.657 603.427 220.087 576 199.52C542.32 245.84 502.32 252.16 456 218.48C418.493 228.98 394.493 215.477 384 177.97C348.813 222.783 308.813 227.597 264 192.41C248.407 224.81 224.407 233.213 192 217.62C147.147 252.767 107.147 247.913 72 203.06C24.6333 235.693 -15.3667 228.33 -48 180.97V0Z" fill="#8A6F8B"/>
<path d="M-24 0L1440 0V186.68C1411.59 206.273 1387.59 201.867 1368 173.46C1336.91 190.367 1312.91 183.277 1296 152.19C1283.64 187.83 1259.64 199.473 1224 187.12C1179.33 222.447 1139.33 217.77 1104 173.09C1059.01 208.097 1019.01 203.1 984 158.1C969.473 191.573 945.473 201.047 912 186.52C858.133 212.653 818.133 198.783 792 144.91C775.673 176.59 751.673 184.267 720 167.94C683.96 211.9 643.96 215.86 600 179.82C566.233 194.053 542.233 184.287 528 150.52C509.607 180.127 485.607 185.733 456 167.34C420.253 211.593 380.253 215.847 336 180.1C284.473 208.573 244.473 197.047 216 145.52C182.027 191.547 142.027 197.573 96 163.6C60.0133 207.613 20.0133 211.623 -24 175.63V0Z" fill="#745F7B"/>
<path d="M-120 0L1440 0V137.9C1420.97 166.873 1396.97 171.843 1368 152.81C1332.75 165.557 1308.75 154.303 1296 119.05C1262.35 165.403 1222.35 171.753 1176 138.1C1141.93 184.033 1101.93 189.963 1056 155.89C1019.4 167.29 995.4 154.687 984 118.08C952.707 166.78 912.707 175.483 864 144.19C834.92 163.11 810.92 158.033 792 128.96C748.247 165.207 708.247 161.457 672 117.71C639.987 165.697 599.987 173.683 552 141.67C508.633 178.303 468.633 174.94 432 131.58C403.84 151.42 379.84 147.26 360 119.1C328.693 167.793 288.693 176.487 240 145.18C195.213 180.393 155.213 175.607 120 130.82C74.88 165.7 34.88 160.58 0 115.46C-30.8867 164.573 -70.8867 173.687 -120 142.8V0Z" fill="#5E4F6B"/>
<path d="M-48 1.52588e-05L1440 1.52588e-05V103.99C1406.83 150.823 1366.83 157.653 1320 124.48C1268.47 152.953 1228.47 141.427 1200 89.9C1164.84 134.74 1124.84 139.58 1080 104.42C1045.51 149.933 1005.51 155.447 960 120.96C923 131.953 899 118.95 888 81.95C857.073 131.023 817.073 140.093 768 109.16C748.953 138.12 724.953 143.077 696 124.03C644.033 152.063 604.033 140.097 576 88.13C542.28 134.41 502.28 140.69 456 106.97C435.58 134.55 411.58 138.127 384 117.7C349.1 130.807 325.1 119.91 312 85.01C279.507 132.517 239.507 140.023 192 107.53C157.113 152.643 117.113 157.757 72 122.87C19.0466 149.917 -20.9534 136.96 -48 84V1.52588e-05Z" fill="#49405B"/>
<path d="M-48 0L1440 0V56.93C1406.04 102.97 1366.04 109.01 1320 75.05C1285.17 120.217 1245.17 125.38 1200 90.54C1167.19 105.727 1143.19 96.9133 1128 64.1C1093.31 109.407 1053.31 114.717 1008 80.03C987.607 107.637 963.607 111.243 936 90.85C886.573 121.423 846.573 111.997 816 62.57C779.533 106.103 739.533 109.633 696 73.16C662.64 119.8 622.64 126.443 576 93.09C525.587 122.677 485.587 112.263 456 61.85C436.813 90.6567 412.813 95.4667 384 76.28C349.667 121.947 309.667 127.617 264 93.29C226.02 103.31 202.02 89.33 192 51.35C156.56 95.91 116.56 100.467 72 65.02C38.58 111.6 -1.42004 118.18 -48 84.76V0Z" fill="#35324B"/>
<path d="M-72 0L1440 0V25.29C1421.82 55.1033 1397.82 60.92 1368 42.74C1334.42 89.16 1294.42 95.5833 1248 62.01C1196.83 90.8433 1156.83 79.68 1128 28.52C1107.59 56.1067 1083.59 59.6966 1056 39.29C1036.05 67.3366 1012.05 71.38 984 51.42C933.7 81.12 893.7 70.82 864 20.52C846.1 50.62 822.1 56.72 792 38.82C758.16 84.98 718.16 91.14 672 57.3C621.927 87.2267 581.927 77.1534 552 27.08C517.9 72.98 477.9 78.8833 432 44.79C395.993 88.7833 355.993 92.78 312 56.78C278.253 71.0333 254.253 61.2866 240 27.54C220.213 55.7533 196.213 59.9633 168 40.17C135.4 87.5633 95.4 94.96 48 62.36C-4.12671 90.2333 -44.1267 78.1067 -72 25.98V0Z" fill="#21243C"/>
<path d="M-120 0L1440 0V12.47C1397.03 49.4966 1357.03 46.5267 1320 3.56C1305.11 36.6733 1281.11 45.7867 1248 30.9C1194.05 56.9467 1154.05 42.9933 1128 -10.96C1109.92 18.96 1085.92 24.8833 1056 6.81C1022.28 53.09 982.28 59.37 936 25.65C902.06 39.71 878.06 29.77 864 -4.16998C827.567 39.3967 787.567 42.9666 744 6.53998C708.947 51.4866 668.947 56.4367 624 21.39C588.947 34.3367 564.947 23.28 552 -11.78C534.353 18.5733 510.353 24.9267 480 7.28003C460.393 35.6734 436.393 40.0633 408 20.45C374.487 34.9367 350.487 25.4233 336 -8.09003C317.527 21.4366 293.527 26.9667 264 8.5C227.4 51.9 187.4 55.2967 144 18.69C111.12 33.81 87.12 24.9333 72 -7.94C52.92 20.98 28.92 25.9 0 6.82001C-34.5734 52.2533 -74.5734 57.6833 -120 23.11V0Z" fill="#0E172C"/>
</g>
</svg>
