<svg width="1440" height="90" viewBox="0 0 1440 90" fill="none" xmlns="http://www.w3.org/2000/svg">
<path d="M0 7L1440 7V32.2455C1422.69 62.0064 1399.83 67.8129 1371.43 49.6649C1339.45 96.0032 1301.35 102.415 1257.14 68.901C1208.41 97.6836 1170.32 86.5399 1142.86 35.4699C1123.42 63.008 1100.56 66.5917 1074.29 46.2209C1055.28 74.2183 1032.43 78.2545 1005.71 58.3296C957.81 87.9774 919.714 77.6955 891.429 27.4839C874.381 57.531 851.524 63.6203 822.857 45.7518C790.629 91.8306 752.533 97.9798 708.571 64.1993C660.883 94.0733 622.787 84.0177 594.286 34.0324C561.81 79.8517 523.714 85.7446 480 51.7112C445.708 95.6272 407.613 99.6169 365.714 63.6802C333.575 77.9085 310.717 68.1789 297.143 34.4916C278.298 62.6553 255.441 66.8579 228.571 47.0994C197.524 94.4094 159.429 101.793 114.286 69.2504C64.6412 97.0747 26.546 84.9693 0 32.9343V7Z" fill="black"/>
<path d="M0 0L1440 0V25.2455C1422.69 55.0064 1399.83 60.8129 1371.43 42.6649C1339.45 89.0032 1301.35 95.4153 1257.14 61.901C1208.41 90.6836 1170.32 79.5399 1142.86 28.4699C1123.42 56.008 1100.56 59.5917 1074.29 39.2209C1055.28 67.2183 1032.43 71.2545 1005.71 51.3296C957.81 80.9774 919.714 70.6955 891.429 20.4839C874.381 50.531 851.524 56.6203 822.857 38.7518C790.629 84.8306 752.533 90.9798 708.571 57.1993C660.883 87.0733 622.787 77.0177 594.286 27.0324C561.81 72.8517 523.714 78.7446 480 44.7112C445.708 88.6272 407.613 92.6169 365.714 56.6802C333.575 70.9085 310.717 61.1789 297.143 27.4916C278.298 55.6553 255.441 59.8579 228.571 40.0994C197.524 87.4094 159.429 94.793 114.286 62.2504C64.6412 90.0747 26.546 77.9693 0 25.9343V0Z" fill="white"/>
</svg>
