<svg xmlns="http://www.w3.org/2000/svg" version="1.1" xmlns:xlink="http://www.w3.org/1999/xlink" xmlns:svgjs="http://svgjs.dev/svgjs" width="1440" height="1440" preserveAspectRatio="none" viewBox="0 0 1440 1440"><g mask="url(&quot;#SvgjsMask1061&quot;)" fill="none"><rect width="1440" height="1440" x="0" y="0" fill="url(&quot;#SvgjsLinearGradient1062&quot;)"></rect><path d="M613.1333853272025 1137.352585105493L700.2884265114153 727.3203541574101 203.10115437911958 1050.1975439212802z" fill="rgba(0, 0, 0, 0.52)" class="triangle-float2"></path><path d="M407.5452802277387 215.57547403532624L293.7667816175836-7.727402637567309 70.46390494469006 106.0510959725878 184.24240355484517 329.35397264548135z" fill="rgba(0, 0, 0, 0.52)" class="triangle-float2"></path><path d="M45.924,746.415C101.372,750.111,164.131,747.912,194.88,701.623C228.004,651.758,220.062,584.066,186.858,534.255C156.8,489.163,100.078,476.134,45.924,478.167C-4.145,480.046,-52.85,500.741,-77.805,544.188C-102.672,587.482,-98.258,641.235,-72.201,683.823C-47.275,724.563,-1.73,743.239,45.924,746.415" fill="rgba(0, 0, 0, 0.52)" class="triangle-float2"></path><path d="M-251.4767648356218 166.54207957659398L71.5400291475932 324.08789665627296 229.0858462272722 1.0711026730579931-93.93094775594278-156.47471440662102z" fill="rgba(0, 0, 0, 0.52)" class="triangle-float1"></path><path d="M231.6662037599619 126.16289347721089L56.654309837629995 429.29238567954457 359.7838020399637 604.3042796018765 534.7956959622956 301.17478739954277z" fill="rgba(0, 0, 0, 0.52)" class="triangle-float2"></path><path d="M1106.856,1613.642C1274.038,1617.51,1428.891,1524.022,1511.726,1378.752C1593.804,1234.809,1595.946,1053.66,1505.232,914.997C1421.616,787.183,1259.565,757.063,1106.856,759.874C960.284,762.572,810.515,804.722,733.097,929.21C651.68,1060.129,659.293,1225.429,733.184,1360.739C810.445,1502.22,945.697,1609.913,1106.856,1613.642" fill="rgba(0, 0, 0, 0.52)" class="triangle-float1"></path><path d="M-93.57124185424507 990.772764029208L184.60601480780244 966.4354076205375 160.26865839913194 688.25815095849-117.90859826291558 712.5955073671605z" fill="rgba(0, 0, 0, 0.52)" class="triangle-float1"></path><path d="M266.7,1310.668C338.81,1316.998,425.618,1318.706,461.805,1256.013C497.989,1193.325,449.869,1121.147,411.532,1059.751C376.397,1003.483,333.031,944.476,266.7,943.558C199.249,942.624,145.302,995.5,114.753,1055.643C87.113,1110.061,91.858,1173.844,123.099,1226.278C153.558,1277.399,207.421,1305.464,266.7,1310.668" fill="rgba(0, 0, 0, 0.52)" class="triangle-float2"></path><path d="M1197.6855541064738 1444.4313759758268L1183.9061649385894 1038.7569169477617 879.7593850450189 1221.5067393898516z" fill="rgba(0, 0, 0, 0.52)" class="triangle-float3"></path><path d="M1343.828,1206.009C1437.06,1203.122,1528.639,1167.346,1576.294,1087.161C1624.924,1005.335,1619.682,903.59,1572.791,820.755C1525.163,736.618,1440.245,683.657,1343.828,676.499C1231.721,668.176,1105.674,685.675,1047.292,781.742C987.391,880.308,1018.94,1007.835,1085.016,1102.372C1142.076,1184.01,1244.274,1209.091,1343.828,1206.009" fill="rgba(0, 0, 0, 0.52)" class="triangle-float3"></path><path d="M198.5603227141114 963.3829898979552L525.4731119911437 1102.1492360428927 664.239358136081 775.2364467658604 337.3265688590488 636.4702006209229z" fill="rgba(0, 0, 0, 0.52)" class="triangle-float1"></path><path d="M916.528,1564.28C1020.763,1570.786,1121.436,1516.167,1174.054,1425.952C1227.053,1335.084,1219.678,1223.689,1168.917,1131.552C1116.162,1035.796,1025.835,956.422,916.528,958.513C809.931,960.552,725.894,1044.51,680.325,1140.897C640.979,1224.122,664.4,1316.549,709.25,1396.941C755.619,1480.055,821.539,1558.351,916.528,1564.28" fill="rgba(0, 0, 0, 0.52)" class="triangle-float3"></path><path d="M1201.5879206164193 708.56497293858L1291.4863958897708 1044.0706501817028 1626.992073132894 954.1721749083513 1537.0935978595421 618.6664976652283z" fill="rgba(0, 0, 0, 0.52)" class="triangle-float3"></path><path d="M682.029957548008 92.15282624426152L414.62629779011377 168.82959181485592 663.3432760249525 531.5966986664001z" fill="rgba(0, 0, 0, 0.52)" class="triangle-float2"></path><path d="M172.28445657474742 1322.1546312179669L28.11309196087612 1217.4080035054221-56.921167301005255 1486.0383642825013z" fill="rgba(0, 0, 0, 0.52)" class="triangle-float2"></path><path d="M-5.391609130909096-62.01598837378894L-26.501036466131296 109.90650074041721 241.93741087278906 55.60939718614745z" fill="rgba(0, 0, 0, 0.52)" class="triangle-float1"></path><path d="M629.817,865.296C696.295,865.198,761.044,836.111,794.494,778.662C828.141,720.875,826.258,647.226,789.196,591.568C755.459,540.904,690.682,530.659,629.817,531.358C570.544,532.039,509.581,545.867,476.655,595.158C440.06,649.942,431.803,721.838,464.297,779.149C497.177,837.14,563.153,865.394,629.817,865.296" fill="rgba(0, 0, 0, 0.52)" class="triangle-float3"></path><path d="M461.489,1125.034C505.461,1123.444,537.849,1086.399,556.336,1046.47C571.939,1012.771,564.421,975.164,545.741,943.068C527.199,911.209,498.344,884.234,461.489,883.505C423.535,882.754,391.525,907.517,371.258,939.615C349.233,974.497,335.919,1016.691,353.971,1053.786C374.135,1095.221,415.438,1126.699,461.489,1125.034" fill="rgba(0, 0, 0, 0.52)" class="triangle-float3"></path><path d="M902.2689908953707 257.6036134051163L1069.5077148566122 27.879972943907973 822.9666067847844-2.391468755207029z" fill="rgba(0, 0, 0, 0.52)" class="triangle-float1"></path></g><defs><mask id="SvgjsMask1061"><rect width="1440" height="1440" fill="#ffffff"></rect></mask><linearGradient x1="50%" y1="100%" x2="50%" y2="0%" gradientUnits="userSpaceOnUse" id="SvgjsLinearGradient1062"><stop stop-color="#0e2a47" offset="0"></stop><stop stop-color="rgba(209, 152, 183, 1)" offset="1"></stop></linearGradient><style>
                @keyframes float1 {
                    0%{transform: translate(0, 0)}
                    50%{transform: translate(-10px, 0)}
                    100%{transform: translate(0, 0)}
                }

                .triangle-float1 {
                    animation: float1 5s infinite;
                }

                @keyframes float2 {
                    0%{transform: translate(0, 0)}
                    50%{transform: translate(-5px, -5px)}
                    100%{transform: translate(0, 0)}
                }

                .triangle-float2 {
                    animation: float2 4s infinite;
                }

                @keyframes float3 {
                    0%{transform: translate(0, 0)}
                    50%{transform: translate(0, -10px)}
                    100%{transform: translate(0, 0)}
                }

                .triangle-float3 {
                    animation: float3 6s infinite;
                }
            </style></defs></svg>